GRF
version=1
nRows=21
nColumns=28
inDegrees=no
endheader
time	plate1_ground_force_vx	plate1_ground_force_vy	plate1_ground_force_vz	plate1_ground_force_px	plate1_ground_force_py	plate1_ground_force_pz	plate1_ground_torque_x	plate1_ground_torque_y	plate1_ground_torque_z	plate2_ground_force_vx	plate2_ground_force_vy	plate2_ground_force_vz	plate2_ground_force_px	plate2_ground_force_py	plate2_ground_force_pz	plate2_ground_torque_x	plate2_ground_torque_y	plate2_ground_torque_z	plate3_ground_force_vx	plate3_ground_force_vy	plate3_ground_force_vz	plate3_ground_force_px	plate3_ground_force_py	plate3_ground_force_pz	plate3_ground_torque_x	plate3_ground_torque_y	plate3_ground_torque_z
      1.38000000	      0.00000000	      0.00000000	      0.00000000	      0.00000000	      0.00000000	      0.00000000	      0.00000000	      0.00000000	      0.00000000	      2.67505733	    496.58242580	     12.87538639	      1.01893081	      0.00000000	      0.12986437	     -0.00000000	     -1.50247619	      0.00000000	      0.00000000	      0.00000000	      0.00000000	      0.00000000	      0.00000000	      0.00000000	      0.00000000	      0.00000000	      0.00000000
      1.39000000	      0.00000000	      0.00000000	      0.00000000	      0.00000000	      0.00000000	      0.00000000	      0.00000000	      0.00000000	      0.00000000	      7.50342847	    501.70125868	     13.54340435	      1.02084976	      0.00000000	      0.12982877	     -0.00000000	     -1.46974586	      0.00000000	      0.00000000	      0.00000000	      0.00000000	      0.00000000	      0.00000000	      0.00000000	      0.00000000	      0.00000000	      0.00000000
      1.40000000	      0.00000000	      0.00000000	      0.00000000	      0.00000000	      0.00000000	      0.00000000	      0.00000000	      0.00000000	      0.00000000	     12.29946269	    508.25769897	     14.32467103	      1.02268614	      0.00000000	      0.12988689	      0.00000000	     -1.45219573	      0.00000000	      0.00000000	      0.00000000	      0.00000000	      0.00000000	      0.00000000	      0.00000000	      0.00000000	      0.00000000	      0.00000000
      1.41000000	      0.00000000	      0.00000000	      0.00000000	      0.00000000	      0.00000000	      0.00000000	      0.00000000	      0.00000000	      0.00000000	     17.10951013	    516.25345605	     15.14611374	      1.02447484	      0.00000000	      0.13003892	      0.00000000	     -1.45558545	      0.00000000	      0.00000000	      0.00000000	      0.00000000	      0.00000000	      0.00000000	      0.00000000	      0.00000000	      0.00000000	      0.00000000
      1.42000000	      0.00000000	      0.00000000	      0.00000000	      0.00000000	      0.00000000	      0.00000000	      0.00000000	      0.00000000	      0.00000000	     22.03600260	    525.59160623	     15.90201843	      1.02623719	      0.00000000	      0.13028751	      0.00000000	     -1.48616235	      0.00000000	      0.00000000	      0.00000000	      0.00000000	      0.00000000	      0.00000000	      0.00000000	      0.00000000	      0.00000000	      0.00000000
      1.43000000	      0.00000000	      0.00000000	      0.00000000	      0.00000000	      0.00000000	      0.00000000	      0.00000000	      0.00000000	      0.00000000	     27.21590646	    536.07846570	     16.47269874	      1.02797982	      0.00000000	      0.13063599	      0.00000000	     -1.54897732	      0.00000000	      0.00000000	      0.00000000	      0.00000000	      0.00000000	      0.00000000	      0.00000000	      0.00000000	      0.00000000	      0.00000000
      1.44000000	      0.00000000	      0.00000000	      0.00000000	      0.00000000	      0.00000000	      0.00000000	      0.00000000	      0.00000000	      0.00000000	     32.78942274	    547.42807156	     16.74948460	      1.02969712	      0.00000000	      0.13108620	      0.00000000	     -1.64584654	      0.00000000	      0.00000000	      0.00000000	      0.00000000	      0.00000000	      0.00000000	      0.00000000	      0.00000000	      0.00000000	      0.00000000
      1.45000000	      0.00000000	      0.00000000	      0.00000000	      0.00000000	      0.00000000	      0.00000000	      0.00000000	      0.00000000	      0.00000000	     38.86855159	    559.26676303	     16.65889788	      1.03137722	      0.00000000	      0.13163653	     -0.00000000	     -1.77361357	      0.00000000	      0.00000000	      0.00000000	      0.00000000	      0.00000000	      0.00000000	      0.00000000	      0.00000000	      0.00000000	      0.00000000
      1.46000000	      0.00000000	      0.00000000	      0.00000000	      0.00000000	      0.00000000	      0.00000000	      0.00000000	      0.00000000	      0.00000000	     45.51423658	    571.13839360	     16.17905447	      1.03300930	      0.00000000	      0.13228087	     -0.00000000	     -1.92335976	      0.00000000	      0.00000000	      0.00000000	      0.00000000	      0.00000000	      0.00000000	      0.00000000	      0.00000000	      0.00000000	      0.00000000
      1.47000000	      0.00000000	      0.00000000	      0.00000000	      0.00000000	      0.00000000	      0.00000000	      0.00000000	      0.00000000	      0.00000000	     52.72603997	    582.50995789	     15.34325690	      1.03458930	      0.00000000	      0.13300891	     -0.00000000	     -2.08096116	      0.00000000	      0.00000000	      0.00000000	      0.00000000	      0.00000000	      0.00000000	      0.00000000	      0.00000000	      0.00000000	      0.00000000
      1.48000000	      0.00000000	      0.00000000	      0.00000000	      0.00000000	      0.00000000	      0.00000000	      0.00000000	      0.00000000	      0.00000000	     60.44237269	    592.77241229	     14.22925624	      1.03612132	      0.00000000	      0.13380713	     -0.00000000	     -2.22893510	      0.00000000	      0.00000000	      0.00000000	      0.00000000	      0.00000000	      0.00000000	      0.00000000	      0.00000000	      0.00000000	      0.00000000
      1.49000000	      0.00000000	      0.00000000	      0.00000000	      0.00000000	      0.00000000	      0.00000000	      0.00000000	      0.00000000	      0.00000000	     68.54516036	    601.22798417	     12.93707649	      1.03761470	      0.00000000	      0.13465894	     -0.00000000	     -2.34905498	      0.00000000	      0.00000000	      0.00000000	      0.00000000	      0.00000000	      0.00000000	      0.00000000	      0.00000000	      0.00000000	      0.00000000
      1.50000000	      0.00000000	      0.00000000	      0.00000000	      0.00000000	      0.00000000	      0.00000000	      0.00000000	      0.00000000	      0.00000000	     76.86223765	    607.06097101	     11.56224214	      1.03907844	      0.00000000	      0.13554289	     -0.00000000	     -2.42499873	      0.00000000	      0.00000000	      0.00000000	      0.00000000	      1.69139701	      0.00000000	      0.15286501	      0.00000000	      0.00000000	      0.00000000
      1.51000000	      0.00000000	      0.00000000	      0.00000000	      0.00000000	      0.00000000	      0.00000000	      0.00000000	      0.00000000	      0.00000000	     85.16362802	    609.30470577	     10.17318860	      1.04051659	      0.00000000	      0.13642989	     -0.00000000	     -2.44445620	     -0.00000000	      0.00000000	      0.00000000	      0.00000000	      1.69139701	      0.00000000	      0.15286501	      0.00000000	      0.00000000	      0.00000000
      1.52000000	      0.00000000	      0.00000000	      0.00000000	      0.00000000	      0.00000000	      0.00000000	      0.00000000	      0.00000000	      0.00000000	     93.15253757	    606.83333653	      8.80059564	      1.04192784	      0.00000000	      0.13728253	     -0.00000000	     -2.40050800	     -0.00000000	      0.00000000	      0.00000000	      0.00000000	      1.69139701	      0.00000000	      0.15286501	      0.00000000	      0.00000000	      0.00000000
      1.53000000	      0.00000000	      0.00000000	      0.00000000	      0.00000000	      0.00000000	      0.00000000	      0.00000000	      0.00000000	      0.00000000	    100.45628788	    598.41045442	      7.44243435	      1.04331250	      0.00000000	      0.13806005	     -0.00000000	     -2.29238849	     -0.00000000	    -12.03777573	     76.78282427	      7.01998979	      1.68827610	      0.00000000	      0.15332033	     -0.00000000	      0.06569400	      0.00000000
      1.54000000	      0.00000000	      0.00000000	      0.00000000	      0.00000000	      0.00000000	      0.00000000	      0.00000000	      0.00000000	      0.00000000	    106.62513822	    582.81273557	      6.08277942	      1.04468732	      0.00000000	      0.13872911	     -0.00000000	     -2.12574406	     -0.00000000	    -18.79282256	    112.17262790	      9.91061334	      1.68203520	      0.00000000	      0.15430429	     -0.00000000	      0.14942139	      0.00000000
      1.55000000	      0.00000000	      0.00000000	      0.00000000	      0.00000000	      0.00000000	      0.00000000	      0.00000000	      0.00000000	      0.00000000	    111.14761260	    559.02275893	      4.71681377	      1.04610564	      0.00000000	      0.13927649	     -0.00000000	     -1.91227503	     -0.00000000	    -27.42583705	    153.67295646	     12.89384701	      1.67568159	      0.00000000	      0.15546430	      0.00000000	      0.23180229	      0.00000000
      1.56000000	      0.00000000	      0.00000000	      0.00000000	      0.00000000	      0.00000000	      0.00000000	      0.00000000	      0.00000000	      0.00000000	    113.48955631	    526.46227960	      3.37117413	      1.04767466	      0.00000000	      0.13971653	     -0.00000000	     -1.66850154	     -0.00000000	    -37.58262106	    198.79607999	     15.51607945	      1.67004227	      0.00000000	      0.15675658	      0.00000000	      0.29926000	      0.00000000
      1.57000000	      0.00000000	      0.00000000	      0.00000000	      0.00000000	      0.00000000	      0.00000000	      0.00000000	      0.00000000	      0.00000000	    113.16032148	    485.22119739	      2.10969322	      1.04955515	      0.00000000	      0.14008640	     -0.00000000	     -1.41355036	     -0.00000000	    -48.60294196	    244.70549631	     17.35108992	      1.66583089	      0.00000000	      0.15812932	      0.00000000	      0.33987582	      0.00000000
      1.58000000	      0.00000000	      0.00000000	      0.00000000	      0.00000000	      0.00000000	      0.00000000	      0.00000000	      0.00000000	      0.00000000	    109.80249227	    436.22738913	      1.02015969	      1.05192499	      0.00000000	      0.14042552	     -0.00000000	     -1.16627138	     -0.00000000	    -59.64898514	    288.93692507	     18.13562206	      1.66343771	      0.00000000	      0.15952735	      0.00000000	      0.34676387	      0.00000000
